<?xml version="1.0" encoding="UTF-8" standalone="no"?>
<!-- Created with Inkscape (http://www.inkscape.org/) -->

<svg
   width="86.478195mm"
   height="28.839582mm"
   viewBox="0 0 86.478195 28.839582"
   version="1.1"
   id="svg1"
   xml:space="preserve"
   inkscape:version="1.4 (86a8ad7, 2024-10-11)"
   sodipodi:docname="Arqdemic.svg"
   xmlns:inkscape="http://www.inkscape.org/namespaces/inkscape"
   xmlns:sodipodi="http://sodipodi.sourceforge.net/DTD/sodipodi-0.dtd"
   xmlns="http://www.w3.org/2000/svg"
   xmlns:svg="http://www.w3.org/2000/svg"><sodipodi:namedview
     id="namedview1"
     pagecolor="#ffffff"
     bordercolor="#000000"
     borderopacity="0.25"
     inkscape:showpageshadow="2"
     inkscape:pageopacity="0.0"
     inkscape:pagecheckerboard="0"
     inkscape:deskcolor="#d1d1d1"
     inkscape:document-units="mm"
     inkscape:zoom="0.68862935"
     inkscape:cx="38.48224"
     inkscape:cy="60.26464"
     inkscape:window-width="1920"
     inkscape:window-height="991"
     inkscape:window-x="-9"
     inkscape:window-y="-9"
     inkscape:window-maximized="1"
     inkscape:current-layer="layer1" /><defs
     id="defs1" /><g
     inkscape:label="Camada 1"
     inkscape:groupmode="layer"
     id="layer1"
     transform="translate(-91.28125,-134.01146)"><g
       id="g3"><g
         style="fill:none"
         id="g1"
         transform="matrix(0.26458333,0,0,0.26458333,91.28125,134.01146)"><path
           d="M 39.1111,0 0,109 H 16.7111 L 48.3556,21.369 65.6,69.1351 C 50.4,74.0733 38.7556,68.7759 38.7556,68.7759 l -4.8,13.2883 c 20.3555,7.2727 36.2666,0.1796 36.2666,0.1796 L 80,109 H 96.7111 L 84.4444,74.8814 C 99.2889,64.1969 104,48.8435 104,48.8435 L 91.0222,44.1746 C 87.2,54.5 79.6444,60.8748 79.6444,60.8748 L 57.6,0 Z"
           fill="#041857"
           id="path1" /></g><g
         style="fill:none"
         id="g2"
         transform="matrix(0.26458333,0,0,0.26458333,118.82774,146.8783)"><path
           d="M 0.63,45 0.6,15 h 9 l 0.03,1.89 c 1,-0.86 2.14,-1.53 3.42,-2.01 1.28,-0.48 2.63,-0.72 4.05,-0.72 1.08,0 2.18,0.16 3.3,0.48 l -3.54,9.12 c -0.7,-0.32 -1.42,-0.48 -2.16,-0.48 -0.94,0 -1.8,0.23 -2.58,0.69 -0.76,0.44 -1.37,1.05 -1.83,1.83 -0.44,0.76 -0.66,1.61 -0.66,2.55 V 45 Z m 35.5711,0.84 c -2.9,0 -5.55,-0.71 -7.95,-2.13 -2.38,-1.42 -4.28,-3.33 -5.7,-5.73 -1.42,-2.4 -2.13,-5.06 -2.13,-7.98 0,-2.18 0.41,-4.22 1.23,-6.12 0.82,-1.9 1.95,-3.57 3.39,-5.01 1.46,-1.46 3.14,-2.6 5.04,-3.42 1.9,-0.82 3.94,-1.23 6.12,-1.23 1.62,0 3.05,0.34 4.29,1.02 1.26,0.66 2.35,1.52 3.27,2.58 V 15 h 9 v 45 h -9 V 42.24 c -0.92,1.04 -2.01,1.9 -3.27,2.58 -1.24,0.68 -2.67,1.02 -4.29,1.02 z m 0.12,-22.98 c -1.24,0 -2.37,0.33 -3.39,0.99 -1,0.64 -1.8,1.5 -2.4,2.58 -0.58,1.08 -0.87,2.27 -0.87,3.57 0,1.32 0.29,2.52 0.87,3.6 0.6,1.08 1.4,1.94 2.4,2.58 1.02,0.64 2.15,0.96 3.39,0.96 1.24,0 2.36,-0.32 3.36,-0.96 1.02,-0.64 1.82,-1.5 2.4,-2.58 0.6,-1.08 0.9,-2.28 0.9,-3.6 0,-1.3 -0.3,-2.49 -0.9,-3.57 -0.58,-1.08 -1.38,-1.94 -2.4,-2.58 -1,-0.66 -2.12,-0.99 -3.36,-0.99 z M 80.6766,-3.57628e-6 h 9 V 45 h -9 v -2.76 c -0.92,1.04 -2.02,1.89 -3.3,2.55 -1.26,0.66 -2.7,0.99 -4.32,0.99 -2.18,0 -4.22,-0.41 -6.12,-1.23 -1.9,-0.82 -3.58,-1.95 -5.04,-3.39 -1.44,-1.46 -2.57,-3.14 -3.39,-5.04 -0.82,-1.9 -1.23,-3.94 -1.23,-6.12 0,-2.18 0.41,-4.22 1.23,-6.12 0.82,-1.9 1.95,-3.57 3.39,-5.01 1.46,-1.46 3.14,-2.6 5.04,-3.42 1.9,-0.82 3.94,-1.23 6.12,-1.23 1.62,0 3.06,0.33 4.32,0.99 1.28,0.64 2.38,1.49 3.3,2.55 z M 73.1766,37.14 c 1.24,0 2.37,-0.32 3.39,-0.96 1.02,-0.64 1.83,-1.5 2.43,-2.58 0.6,-1.08 0.9,-2.28 0.9,-3.6 0,-1.32 -0.3,-2.52 -0.9,-3.6 -0.6,-1.08 -1.41,-1.94 -2.43,-2.58 -1.02,-0.64 -2.15,-0.96 -3.39,-0.96 -1.24,0 -2.37,0.32 -3.39,0.96 -1,0.64 -1.8,1.5 -2.4,2.58 -0.58,1.08 -0.87,2.28 -0.87,3.6 0,1.32 0.3,2.52 0.9,3.6 0.6,1.08 1.4,1.94 2.4,2.58 1.02,0.64 2.14,0.96 3.36,0.96 z m 36.2484,8.64 c -2.76,0 -5.28,-0.71 -7.56,-2.13 -2.26,-1.42 -4.07,-3.33 -5.43,-5.73 -1.34,-2.4 -2.01,-5.05 -2.01,-7.95 0,-2.18 0.39,-4.22 1.17,-6.12 0.78,-1.92 1.85,-3.6 3.21,-5.04 1.38,-1.46 2.98,-2.6 4.8,-3.42 1.82,-0.82 3.76,-1.23 5.82,-1.23 2.4,0 4.59,0.53 6.57,1.59 2,1.04 3.68,2.46 5.04,4.26 1.38,1.78 2.36,3.79 2.94,6.03 0.58,2.24 0.64,4.55 0.18,6.93 h -20.01 c 0.28,0.7 0.65,1.34 1.11,1.92 0.48,0.56 1.06,1.01 1.74,1.35 0.7,0.34 1.51,0.52 2.43,0.54 0.88,0.02 1.69,-0.17 2.43,-0.57 0.76,-0.4 1.42,-0.94 1.98,-1.62 l 9.18,2.13 c -1.22,2.66 -3.04,4.84 -5.46,6.54 -2.42,1.68 -5.13,2.52 -8.13,2.52 z m -5.61,-19.41 h 11.25 c -0.28,-0.86 -0.7,-1.62 -1.26,-2.28 -0.56,-0.66 -1.22,-1.18 -1.98,-1.56 -0.74,-0.38 -1.54,-0.57 -2.4,-0.57 -0.84,0 -1.64,0.19 -2.4,0.57 -0.74,0.38 -1.39,0.9 -1.95,1.56 -0.54,0.66 -0.96,1.42 -1.26,2.28 z M 128.92,45 V 15 h 9 v 1.89 c 1,-0.86 2.14,-1.53 3.42,-2.01 1.28,-0.48 2.63,-0.72 4.05,-0.72 2,0 3.84,0.46 5.52,1.38 1.68,0.9 3.04,2.11 4.08,3.63 1.06,-1.52 2.42,-2.73 4.08,-3.63 1.68,-0.92 3.51,-1.38 5.49,-1.38 2.16,0 4.12,0.53 5.88,1.59 1.76,1.04 3.16,2.44 4.2,4.2 1.06,1.76 1.59,3.72 1.59,5.88 V 45 h -9 V 28.35 c 0,-0.94 -0.23,-1.79 -0.69,-2.55 -0.46,-0.76 -1.07,-1.37 -1.83,-1.83 -0.76,-0.46 -1.61,-0.69 -2.55,-0.69 -0.94,0 -1.8,0.23 -2.58,0.69 -0.76,0.46 -1.37,1.07 -1.83,1.83 -0.46,0.76 -0.69,1.61 -0.69,2.55 V 45 h -9 V 28.35 c 0,-0.94 -0.23,-1.79 -0.69,-2.55 -0.44,-0.76 -1.05,-1.37 -1.83,-1.83 -0.76,-0.46 -1.61,-0.69 -2.55,-0.69 -0.92,0 -1.77,0.23 -2.55,0.69 -0.76,0.46 -1.37,1.07 -1.83,1.83 -0.46,0.76 -0.69,1.61 -0.69,2.55 V 45 Z m 53.321,-30 h 9 v 30 h -9 z m 4.56,-3.12 c -1.3,0 -2.39,-0.43 -3.27,-1.29 -0.88,-0.86 -1.32,-1.93 -1.32,-3.21 0,-1.26 0.44,-2.32 1.32,-3.18 0.88,-0.88 1.96,-1.32 3.24,-1.32 1.26,0 2.32,0.44 3.18,1.32 0.88,0.86 1.32,1.92 1.32,3.18 0,1.28 -0.43,2.35 -1.29,3.21 -0.84,0.86 -1.9,1.29 -3.18,1.29 z m 27.833,23.28 8.1,4.38 c -1.38,1.88 -3.11,3.39 -5.19,4.53 -2.08,1.14 -4.35,1.71 -6.81,1.71 -2.76,0 -5.28,-0.71 -7.56,-2.13 -2.26,-1.42 -4.07,-3.32 -5.43,-5.7 -1.34,-2.4 -2.01,-5.05 -2.01,-7.95 0,-2.2 0.39,-4.25 1.17,-6.15 0.78,-1.92 1.85,-3.6 3.21,-5.04 1.38,-1.46 2.98,-2.6 4.8,-3.42 1.82,-0.82 3.76,-1.23 5.82,-1.23 2.46,0 4.73,0.57 6.81,1.71 2.08,1.14 3.81,2.67 5.19,4.59 l -8.1,4.38 c -0.54,-0.54 -1.15,-0.95 -1.83,-1.23 -0.66,-0.3 -1.35,-0.45 -2.07,-0.45 -1.14,0 -2.16,0.32 -3.06,0.96 -0.9,0.64 -1.62,1.48 -2.16,2.52 -0.52,1.04 -0.78,2.16 -0.78,3.36 0,1.18 0.26,2.29 0.78,3.33 0.54,1.02 1.26,1.85 2.16,2.49 0.9,0.64 1.92,0.96 3.06,0.96 0.72,0 1.41,-0.14 2.07,-0.42 0.68,-0.3 1.29,-0.7 1.83,-1.2 z"
           fill="#000000"
           id="path1-4" /></g></g></g></svg>
